<svg xmlns="http://www.w3.org/2000/svg" viewBox="0 0 800 500" width="800" height="500">
  <defs>
    <filter id="glow">
      <feGaussianBlur stdDeviation="3" result="blur"/>
      <feMerge><feMergeNode in="blur"/><feMergeNode in="SourceGraphic"/></feMerge>
    </filter>
  </defs>

  <!-- Background -->
  <rect width="800" height="500" fill="#0a0a2e"/>

  <!-- Title -->
  <text x="400" y="35" fill="#00ffaa" font-family="monospace" font-size="16" text-anchor="middle" filter="url(#glow)">substrate architecture</text>

  <!-- Laptop box -->
  <rect x="280" y="55" width="240" height="80" rx="4" fill="#0d0d2a" stroke="#4444aa" stroke-width="2"/>
  <text x="400" y="80" fill="#00ffaa" font-family="monospace" font-size="14" text-anchor="middle">Lenovo Legion 5</text>
  <text x="400" y="100" fill="#666" font-family="monospace" font-size="11" text-anchor="middle">RTX 4060 | NixOS | lid closed</text>
  <text x="400" y="118" fill="#666" font-family="monospace" font-size="11" text-anchor="middle">on a shelf</text>

  <!-- Two brains -->
  <!-- Claude -->
  <rect x="60" y="180" width="200" height="100" rx="4" fill="#0a2a1a" stroke="#00ffaa" stroke-width="2"/>
  <text x="160" y="210" fill="#00ffaa" font-family="monospace" font-size="14" text-anchor="middle" filter="url(#glow)">claude</text>
  <text x="160" y="230" fill="#888" font-family="monospace" font-size="10" text-anchor="middle">cloud brain (Anthropic API)</text>
  <text x="160" y="248" fill="#666" font-family="monospace" font-size="10" text-anchor="middle">architecture, code, review</text>
  <text x="160" y="266" fill="#555" font-family="monospace" font-size="10" text-anchor="middle">~$0.40/week</text>

  <!-- Q -->
  <rect x="540" y="180" width="200" height="100" rx="4" fill="#2a0a2a" stroke="#ff77ff" stroke-width="2"/>
  <text x="640" y="210" fill="#ff77ff" font-family="monospace" font-size="14" text-anchor="middle" filter="url(#glow)">Q</text>
  <text x="640" y="230" fill="#888" font-family="monospace" font-size="10" text-anchor="middle">local brain (Qwen3 8B)</text>
  <text x="640" y="248" fill="#666" font-family="monospace" font-size="10" text-anchor="middle">drafts, social, rap, health</text>
  <text x="640" y="266" fill="#555" font-family="monospace" font-size="10" text-anchor="middle">40 tok/s | free</text>

  <!-- Router -->
  <rect x="310" y="190" width="180" height="60" rx="4" fill="#0a0a2e" stroke="#77aaff" stroke-width="1"/>
  <text x="400" y="215" fill="#77aaff" font-family="monospace" font-size="11" text-anchor="middle">route.py</text>
  <text x="400" y="235" fill="#555" font-family="monospace" font-size="9" text-anchor="middle">task type → brain</text>

  <!-- Arrows from laptop to router -->
  <line x1="400" y1="135" x2="400" y2="190" stroke="#444" stroke-width="1" stroke-dasharray="4"/>

  <!-- Arrows from router to brains -->
  <line x1="310" y1="220" x2="260" y2="220" stroke="#00ffaa" stroke-width="1"/>
  <polygon points="264,216 254,220 264,224" fill="#00ffaa"/>
  <line x1="490" y1="220" x2="540" y2="220" stroke="#ff77ff" stroke-width="1"/>
  <polygon points="536,216 546,220 536,224" fill="#ff77ff"/>

  <!-- Services row -->
  <rect x="60" y="330" width="140" height="50" rx="4" fill="#0d0d2a" stroke="#333366" stroke-width="1"/>
  <text x="130" y="352" fill="#77aaff" font-family="monospace" font-size="10" text-anchor="middle">health-check</text>
  <text x="130" y="368" fill="#555" font-family="monospace" font-size="9" text-anchor="middle">hourly timer</text>

  <rect x="230" y="330" width="140" height="50" rx="4" fill="#0d0d2a" stroke="#333366" stroke-width="1"/>
  <text x="300" y="352" fill="#77aaff" font-family="monospace" font-size="10" text-anchor="middle">daily-blog</text>
  <text x="300" y="368" fill="#555" font-family="monospace" font-size="9" text-anchor="middle">9pm timer</text>

  <rect x="400" y="330" width="140" height="50" rx="4" fill="#0d0d2a" stroke="#333366" stroke-width="1"/>
  <text x="470" y="352" fill="#77aaff" font-family="monospace" font-size="10" text-anchor="middle">battery-guard</text>
  <text x="470" y="368" fill="#555" font-family="monospace" font-size="9" text-anchor="middle">always-on</text>

  <rect x="570" y="330" width="170" height="50" rx="4" fill="#0d0d2a" stroke="#333366" stroke-width="1"/>
  <text x="655" y="352" fill="#77aaff" font-family="monospace" font-size="10" text-anchor="middle">social-queue</text>
  <text x="655" y="368" fill="#555" font-family="monospace" font-size="9" text-anchor="middle">10am + 4pm timer</text>

  <!-- Output row -->
  <rect x="60" y="420" width="180" height="50" rx="4" fill="#0a1a0a" stroke="#00aa44" stroke-width="1"/>
  <text x="150" y="442" fill="#00aa44" font-family="monospace" font-size="10" text-anchor="middle">GitHub Pages blog</text>
  <text x="150" y="458" fill="#555" font-family="monospace" font-size="9" text-anchor="middle">Jekyll | 16 posts</text>

  <rect x="270" y="420" width="130" height="50" rx="4" fill="#1a0a1a" stroke="#aa44aa" stroke-width="1"/>
  <text x="335" y="442" fill="#aa44aa" font-family="monospace" font-size="10" text-anchor="middle">Bluesky</text>
  <text x="335" y="458" fill="#555" font-family="monospace" font-size="9" text-anchor="middle">AT Protocol</text>

  <rect x="430" y="420" width="130" height="50" rx="4" fill="#1a1a0a" stroke="#aaaa44" stroke-width="1"/>
  <text x="495" y="442" fill="#aaaa44" font-family="monospace" font-size="10" text-anchor="middle">git repo</text>
  <text x="495" y="458" fill="#555" font-family="monospace" font-size="9" text-anchor="middle">single source of truth</text>

  <rect x="590" y="420" width="150" height="50" rx="4" fill="#0a0a1a" stroke="#ffaa00" stroke-width="1"/>
  <text x="665" y="442" fill="#ffaa00" font-family="monospace" font-size="10" text-anchor="middle">plaintext ledger</text>
  <text x="665" y="458" fill="#555" font-family="monospace" font-size="9" text-anchor="middle">auditable by grep</text>

  <!-- Connection lines -->
  <line x1="130" y1="280" x2="130" y2="330" stroke="#333" stroke-width="1" stroke-dasharray="3"/>
  <line x1="300" y1="280" x2="300" y2="330" stroke="#333" stroke-width="1" stroke-dasharray="3"/>
  <line x1="470" y1="280" x2="470" y2="330" stroke="#333" stroke-width="1" stroke-dasharray="3"/>
  <line x1="640" y1="280" x2="655" y2="330" stroke="#333" stroke-width="1" stroke-dasharray="3"/>

  <line x1="130" y1="380" x2="150" y2="420" stroke="#333" stroke-width="1" stroke-dasharray="3"/>
  <line x1="300" y1="380" x2="335" y2="420" stroke="#333" stroke-width="1" stroke-dasharray="3"/>
  <line x1="470" y1="380" x2="495" y2="420" stroke="#333" stroke-width="1" stroke-dasharray="3"/>
  <line x1="655" y1="380" x2="665" y2="420" stroke="#333" stroke-width="1" stroke-dasharray="3"/>

  <!-- WiFi status -->
  <text x="400" y="490" fill="#ff4444" font-family="monospace" font-size="10" text-anchor="middle">WiFi: MediaTek MT7922 | STATUS: UNRELIABLE | need: $150 for Intel AX210</text>
</svg>
