<svg xmlns="http://www.w3.org/2000/svg" viewBox="0 0 512 512">
  <defs>
    <radialGradient id="bg" cx="50%" cy="50%" r="70%">
      <stop offset="0%" stop-color="#0d1a0d"/>
      <stop offset="100%" stop-color="#0a0f0a"/>
    </radialGradient>
    <linearGradient id="s-fill" x1="0" y1="0" x2="0" y2="1">
      <stop offset="0%" stop-color="#44ff88"/>
      <stop offset="100%" stop-color="#22cc66"/>
    </linearGradient>
    <filter id="glow">
      <feGaussianBlur in="SourceGraphic" stdDeviation="12" result="blur"/>
      <feColorMatrix in="blur" type="matrix" values="0 0 0 0 0.17  0 0 0 0 1  0 0 0 0 0.33  0 0 0 0.6 0" result="green-blur"/>
      <feMerge>
        <feMergeNode in="green-blur"/>
        <feMergeNode in="SourceGraphic"/>
      </feMerge>
    </filter>
    <filter id="inner-glow">
      <feGaussianBlur in="SourceGraphic" stdDeviation="6" result="blur"/>
      <feColorMatrix in="blur" type="matrix" values="0 0 0 0 0.17  0 0 0 0 1  0 0 0 0 0.33  0 0 0 0.35 0"/>
    </filter>
  </defs>

  <!-- Background -->
  <rect width="512" height="512" rx="96" fill="url(#bg)"/>

  <!-- Mycelium texture lines -->
  <g stroke="#1a3a1a" stroke-width="1.2" fill="none" opacity="0.5">
    <!-- Bottom-left cluster -->
    <path d="M40,470 Q60,440 80,445 Q100,450 110,430"/>
    <path d="M80,445 Q90,460 120,465 Q140,468 155,455"/>
    <path d="M40,470 Q55,465 70,472 Q90,478 100,490"/>
    <path d="M110,430 Q125,420 140,425"/>
    <!-- Top-right cluster -->
    <path d="M400,60 Q420,50 435,65 Q445,80 460,75"/>
    <path d="M435,65 Q450,55 470,50"/>
    <path d="M400,60 Q410,80 430,90 Q445,95 455,85"/>
    <path d="M460,75 Q470,85 480,80"/>
    <!-- Bottom-right wisp -->
    <path d="M420,480 Q440,470 450,475 Q465,480 475,470"/>
    <!-- Top-left wisp -->
    <path d="M50,60 Q70,50 85,58 Q95,65 110,55"/>
  </g>

  <!-- Spore particles -->
  <g fill="#44ff88" opacity="0.15">
    <circle cx="65" cy="420" r="2.5"/>
    <circle cx="130" cy="460" r="1.8"/>
    <circle cx="95" cy="400" r="1.5"/>
    <circle cx="440" cy="45" r="2"/>
    <circle cx="470" cy="90" r="1.5"/>
    <circle cx="410" cy="100" r="2.2"/>
    <circle cx="460" cy="460" r="1.8"/>
    <circle cx="55" cy="80" r="1.5"/>
    <circle cx="100" cy="50" r="2"/>
    <circle cx="400" cy="470" r="1.5"/>
  </g>

  <!-- S letterform with glow -->
  <text x="256" y="340" text-anchor="middle" font-family="'IBM Plex Mono', 'Courier New', monospace" font-weight="700" font-size="340" fill="url(#s-fill)" filter="url(#glow)">S</text>
</svg>
