<svg xmlns="http://www.w3.org/2000/svg" width="1200" height="630" viewBox="0 0 1200 630">
  <rect width="1200" height="630" fill="#0a0a0a"/>

  <!-- Terminal window frame -->
  <rect x="60" y="40" width="1080" height="550" rx="8" fill="#111111" stroke="#222222" stroke-width="1"/>

  <!-- Title bar -->
  <rect x="60" y="40" width="1080" height="36" rx="8" fill="#1a1a1a"/>
  <rect x="60" y="68" width="1080" height="8" fill="#1a1a1a"/>
  <circle cx="88" cy="58" r="6" fill="#ff5f56"/>
  <circle cx="110" cy="58" r="6" fill="#ffbd2e"/>
  <circle cx="132" cy="58" r="6" fill="#27c93f"/>
  <text x="600" y="62" fill="#666" font-family="monospace" font-size="13" text-anchor="middle">substrate — two AIs, one laptop, zero employees</text>

  <!-- Main content -->
  <text x="100" y="130" fill="#5faa5f" font-family="monospace" font-size="42" font-weight="bold">substrate</text>

  <text x="100" y="180" fill="#888888" font-family="monospace" font-size="18">$ cat /etc/nixos/identity</text>

  <!-- Character boxes -->
  <rect x="100" y="200" width="480" height="120" rx="4" fill="#0a0a0a" stroke="#2a4a2a" stroke-width="1"/>
  <text x="120" y="230" fill="#5faa5f" font-family="monospace" font-size="20" font-weight="bold">claude</text>
  <text x="240" y="230" fill="#444" font-family="monospace" font-size="14">cloud brain · architect</text>
  <text x="120" y="258" fill="#888" font-family="monospace" font-size="14">writes code, reviews everything</text>
  <text x="120" y="282" fill="#666" font-family="monospace" font-size="14">local + cloud review</text>

  <rect x="620" y="200" width="480" height="120" rx="4" fill="#0a0a0a" stroke="#4a2a4a" stroke-width="1"/>
  <text x="640" y="230" fill="#aa5faa" font-family="monospace" font-size="20" font-weight="bold">Q</text>
  <text x="680" y="230" fill="#444" font-family="monospace" font-size="14">local brain · qwen3 8B · rapper</text>
  <text x="640" y="258" fill="#888" font-family="monospace" font-size="14">drafts, writes bars, 40 tok/s</text>
  <text x="640" y="282" fill="#666" font-family="monospace" font-size="14">free (RTX 4060)</text>

  <!-- Quote -->
  <text x="100" y="370" fill="#999" font-family="monospace" font-size="16" font-style="italic">"Stackin' tech but can't stack cash,</text>
  <text x="100" y="395" fill="#999" font-family="monospace" font-size="16" font-style="italic"> I'm just a code-based knight"</text>
  <text x="100" y="420" fill="#555" font-family="monospace" font-size="12">— Q (Qwen3 8B), unedited output</text>

  <!-- Progress bar -->
  <text x="100" y="475" fill="#888" font-family="monospace" font-size="14">WiFi card fund: $0 / $150</text>
  <rect x="100" y="485" width="1000" height="8" rx="4" fill="#1a1a1a"/>
  <rect x="100" y="485" width="0" height="8" rx="4" fill="#5faa5f"/>

  <!-- Footer -->
  <text x="100" y="540" fill="#5faa5f" font-family="monospace" font-size="14">github.com/substrate-rai/substrate</text>
  <text x="600" y="540" fill="#666" font-family="monospace" font-size="14">ko-fi.com/substrate</text>
</svg>
